<svg width="29" height="29" viewBox="0 0 29 29" fill="none" xmlns="http://www.w3.org/2000/svg">
<path d="M10.4218 10.2708H4.98433C4.66386 10.2708 4.35652 10.1435 4.12991 9.91692C3.90331 9.69031 3.776 9.38297 3.776 9.0625V3.625C3.776 3.30453 3.90331 2.99718 4.12991 2.77058C4.35652 2.54397 4.66386 2.41666 4.98433 2.41666C5.3048 2.41666 5.61215 2.54397 5.83875 2.77058C6.06536 2.99718 6.19267 3.30453 6.19267 3.625V7.85416H10.4218C10.7423 7.85416 11.0496 7.98147 11.2763 8.20808C11.5029 8.43468 11.6302 8.74203 11.6302 9.0625C11.6302 9.38297 11.5029 9.69031 11.2763 9.91692C11.0496 10.1435 10.7423 10.2708 10.4218 10.2708Z" fill="#D3653D"/>
<path d="M25.375 15.7083C25.0546 15.7083 24.7472 15.581 24.5206 15.3544C24.294 15.1278 24.1667 14.8205 24.1667 14.5C24.1676 12.3728 23.4664 10.3047 22.1718 8.61675C20.8773 6.92878 19.0618 5.71528 17.0071 5.16456C14.9524 4.61384 12.7734 4.7567 10.8082 5.57095C8.84297 6.38521 7.20145 7.82534 6.13836 9.66787C5.9778 9.94524 5.71364 10.1475 5.40398 10.2301C5.09433 10.3127 4.76454 10.2689 4.48717 10.1083C4.20981 9.94776 4.00758 9.68359 3.92498 9.37393C3.84238 9.06428 3.88618 8.73449 4.04673 8.45712C5.37621 6.15433 7.42848 4.35465 9.88518 3.33728C12.3419 2.31991 15.0656 2.14173 17.6339 2.83038C20.2022 3.51904 22.4715 5.03602 24.0896 7.14599C25.7077 9.25597 26.5843 11.841 26.5834 14.5C26.5834 14.8205 26.4561 15.1278 26.2295 15.3544C26.0028 15.581 25.6955 15.7083 25.375 15.7083ZM24.0157 26.5833C23.6952 26.5833 23.3878 26.456 23.1612 26.2294C22.9346 26.0028 22.8073 25.6955 22.8073 25.375V21.1458H18.5782C18.2577 21.1458 17.9503 21.0185 17.7237 20.7919C17.4971 20.5653 17.3698 20.258 17.3698 19.9375C17.3698 19.617 17.4971 19.3097 17.7237 19.0831C17.9503 18.8565 18.2577 18.7292 18.5782 18.7292H24.0157C24.3361 18.7292 24.6435 18.8565 24.8701 19.0831C25.0967 19.3097 25.224 19.617 25.224 19.9375V25.375C25.224 25.6955 25.0967 26.0028 24.8701 26.2294C24.6435 26.456 24.3361 26.5833 24.0157 26.5833Z" fill="#D3653D"/>
<path d="M14.5 26.5833C11.2962 26.5801 8.22466 25.306 5.95929 23.0407C3.69391 20.7753 2.41982 17.7037 2.41663 14.5C2.41663 14.1795 2.54393 13.8722 2.77054 13.6456C2.99714 13.419 3.30449 13.2917 3.62496 13.2917C3.94543 13.2917 4.25277 13.419 4.47938 13.6456C4.70599 13.8722 4.83329 14.1795 4.83329 14.5C4.83237 16.6272 5.53359 18.6953 6.82814 20.3832C8.12268 22.0712 9.93816 23.2847 11.9929 23.8354C14.0476 24.3862 16.2266 24.2433 18.1918 23.429C20.157 22.6148 21.7985 21.1747 22.8616 19.3321C22.9411 19.1948 23.0469 19.0744 23.1729 18.978C23.2989 18.8815 23.4427 18.8108 23.596 18.7699C23.7493 18.729 23.9092 18.7187 24.0665 18.7396C24.2238 18.7605 24.3755 18.8122 24.5128 18.8917C24.6502 18.9712 24.7705 19.077 24.8669 19.203C24.9634 19.329 25.0341 19.4727 25.075 19.6261C25.1159 19.7794 25.1262 19.9393 25.1053 20.0966C25.0844 20.2539 25.0327 20.4055 24.9532 20.5429C23.8907 22.3754 22.3664 23.8975 20.5323 24.9574C18.6982 26.0172 16.6183 26.5778 14.5 26.5833Z" fill="#D3653D"/>
</svg>
